<?xml version="1.0" encoding="UTF-8"?>
<svg version="1.1" xmlns="http://www.w3.org/2000/svg" width="505" height="111">
<path d="M0 0 C27.58612349 0.0341185 27.58612349 0.0341185 38.69116211 9.69067383 C39.39241211 10.51567383 40.09366211 11.34067383 40.81616211 12.19067383 C41.53803711 12.99504883 42.25991211 13.79942383 43.00366211 14.62817383 C47.78289396 21.38501886 48.37568054 29.70076175 47.19116211 37.69067383 C45.2247829 46.95335483 40.73122469 53.9093929 32.81616211 59.19067383 C26.1931799 62.46730713 20.12928005 64.32456166 12.73803711 64.28833008 C11.57788086 64.28510742 10.41772461 64.28188477 9.22241211 64.27856445 C8.01584961 64.27018555 6.80928711 64.26180664 5.56616211 64.25317383 C4.34413086 64.24866211 3.12209961 64.24415039 1.86303711 64.23950195 C-1.15263735 64.22772197 -4.16821287 64.21127236 -7.18383789 64.19067383 C-7.20696499 55.99376822 -7.22475485 47.79687615 -7.23565006 39.59994602 C-7.24087809 35.79415806 -7.24797427 31.98839234 -7.25927734 28.18261719 C-7.27010909 24.51274839 -7.27611533 20.84290105 -7.27871513 17.1730175 C-7.28056886 15.7699239 -7.28418849 14.36683153 -7.28956795 12.96374702 C-7.29678208 11.00497703 -7.29724598 9.04618562 -7.29736328 7.08740234 C-7.29958389 5.97043472 -7.3018045 4.8534671 -7.30409241 3.70265198 C-7.07129475 -1.16022259 -4.21408581 0.04008489 0 0 Z M2.81616211 9.19067383 C2.81616211 24.70067383 2.81616211 40.21067383 2.81616211 56.19067383 C19.82925926 55.87020848 19.82925926 55.87020848 32.81616211 47.25317383 C37.71673303 41.3277239 38.26011969 35.94207384 38.13256836 28.42504883 C37.5673641 22.64740529 35.56582454 18.94033626 31.50366211 14.87817383 C21.8977609 8.84656144 14.45107201 9.19067383 2.81616211 9.19067383 Z " fill="#CED1D1" transform="translate(335.183837890625,22.809326171875)"/>
<path d="M0 0 C8.31406014 5.67442507 12.83801566 13.95596305 14.7421875 23.71484375 C15.89880668 32.18065355 13.04092137 40.77107259 8.31640625 47.765625 C1.97736091 55.61471588 -4.7416805 59.96558607 -14.6328125 61.52734375 C-24.70617294 62.34082818 -33.29074922 58.87331533 -40.9453125 52.46484375 C-47.85372103 44.24943902 -51.87480125 36.80453969 -51.50390625 25.80859375 C-50.4178962 16.56888919 -46.3626309 8.14043757 -39.3828125 1.90234375 C-26.70027373 -6.97543339 -13.66798877 -7.77987596 0 0 Z M-36.2578125 11.65234375 C-40.82529323 17.47427341 -42.67605091 23.48221649 -42.08203125 30.9140625 C-40.76140288 38.5576994 -36.92691833 45.17254636 -30.5703125 49.71484375 C-25.00942796 52.77120777 -18.97251581 53.37859951 -12.765625 52.26953125 C-6.75982751 50.51025724 -2.20037434 47.76819298 1.18359375 42.44921875 C5.21968444 34.95197907 6.77468211 28.34131312 4.58984375 19.94921875 C1.82981144 12.67392622 -3.41480793 8.11446009 -10.2578125 4.71484375 C-19.71985345 1.5608301 -29.57870866 4.321958 -36.2578125 11.65234375 Z " fill="#CED1D1" transform="translate(249.2578125,27.28515625)"/>
<path d="M0 0 C4.67561354 3.15455115 8.73334571 6.93102991 12.76171875 10.86328125 C11.33524493 15.14270272 8.22734288 16.17185573 4.44921875 18.17578125 C3.43311523 18.75295898 3.43311523 18.75295898 2.39648438 19.34179688 C-2.62546376 22.03685995 -2.62546376 22.03685995 -5.5 21.22265625 C-6.07363281 20.7740625 -6.64726563 20.32546875 -7.23828125 19.86328125 C-7.82609375 19.52167969 -8.41390625 19.18007813 -9.01953125 18.828125 C-10.16651303 18.14254271 -11.31234726 17.45503695 -12.45703125 16.765625 C-18.47245982 13.71833552 -26.47153379 13.82573405 -32.84765625 15.58203125 C-38.79995266 18.05882573 -42.6485525 21.47868812 -46.23828125 26.86328125 C-48.48486328 27.20385742 -48.48486328 27.20385742 -51.24609375 27.15625 C-52.23222656 27.14658203 -53.21835937 27.13691406 -54.234375 27.12695312 C-55.26691406 27.10181641 -56.29945312 27.07667969 -57.36328125 27.05078125 C-58.92369141 27.03047852 -58.92369141 27.03047852 -60.515625 27.00976562 C-63.09035752 26.97433353 -65.66406455 26.92493346 -68.23828125 26.86328125 C-66.8910098 16.85907411 -61.01181037 8.27234317 -53.0234375 2.171875 C-36.88635126 -8.26361513 -16.74370782 -9.62584059 0 0 Z " fill="#E0FA5B" transform="translate(86.23828125,19.13671875)"/>
<path d="M0 0 C29.66338583 0 29.66338583 0 37.0625 5.8125 C41.88737491 10.66091089 43.18158693 14.68412326 43.375 21.5 C43.20427133 28.03222748 42.01824522 31.64538058 37.75 36.625 C34.65119033 39.30124471 31.57259702 41.01242842 28 43 C28.60585938 43.60062256 29.21171875 44.20124512 29.8359375 44.82006836 C32.07425562 47.04138387 34.31034378 49.26491289 36.54492188 51.48999023 C37.51407921 52.45410665 38.48413048 53.41732529 39.45507812 54.37963867 C40.84737912 55.75986359 42.2362462 57.14354978 43.625 58.52734375 C44.46289062 59.35999756 45.30078125 60.19265137 46.1640625 61.05053711 C48 63 48 63 48 64 C42.37987617 64.72407518 37.20581954 65.33206326 32.21044922 62.31542969 C29.60843375 59.95829183 27.26609003 57.50212721 24.9375 54.875 C24.12345703 54.0190625 23.30941406 53.163125 22.47070312 52.28125 C18.54353813 48.09313311 14.97327289 43.91516656 12 39 C14.55688926 35.80829686 16.94022728 35.38055486 20.875 34.625 C26.17230829 33.41436969 28.76534116 32.35005844 32 28 C33.73403022 24.53193957 33.46579045 20.7919279 33 17 C30.24706945 12.02354862 28.73610502 11.91203501 23 10 C16.07 9.505 16.07 9.505 9 9 C9 27.15 9 45.3 9 64 C6.03 64 3.06 64 0 64 C0 42.88 0 21.76 0 0 Z " fill="#CED1D1" transform="translate(275,23)"/>
<path d="M0 0 C1.3293457 -0.06864258 1.3293457 -0.06864258 2.68554688 -0.13867188 C7.53983057 -0.22131327 10.44472689 0.0429983 14.14453125 3.33984375 C14.97319702 4.15473267 14.97319702 4.15473267 15.81860352 4.98608398 C20.57781914 9.60996647 27.30866559 8.90735477 33.49462891 8.95703125 C39.35722937 8.83318188 43.10389824 7.73403489 47.5859375 3.75 C49.3125 2.4375 49.3125 2.4375 53.3125 2.4375 C55.05175781 3.35546875 55.05175781 3.35546875 56.765625 4.625 C57.384375 5.07617188 58.003125 5.52734375 58.640625 5.9921875 C59.27484375 6.46914062 59.9090625 6.94609375 60.5625 7.4375 C61.53703125 8.15292969 61.53703125 8.15292969 62.53125 8.8828125 C64.13123664 10.05927327 65.72271641 11.24728769 67.3125 12.4375 C63.08939022 20.42528989 54.36661118 26.06142366 45.85546875 28.8125 C32.29752866 31.20419836 16.8879776 31.24128627 4.8828125 23.96484375 C-1.86584646 19.15898055 -8.49433516 12.1877443 -11.6875 4.4375 C-11.6875 3.4475 -11.6875 2.4575 -11.6875 1.4375 C-8.08773261 -0.3623837 -3.96524691 0.08184495 0 0 Z " fill="#E0FA5B" transform="translate(30.6875,67.5625)"/>
<path d="M0 0 C3.79486992 -0.54040869 7.21954259 -0.71266731 11 0 C14.1054372 2.42539316 15.9578414 5.41293883 18 8.75 C18.54527344 9.575 19.09054687 10.4 19.65234375 11.25 C20.66591439 12.78646405 21.6640268 14.33332933 22.640625 15.89355469 C24.00458636 18.00710688 25.46839701 20.00553757 27 22 C28.08518049 20.61242732 29.16948841 19.22416472 30.24975586 17.83276367 C31.17135224 16.6464517 32.09669215 15.46303905 33.02563477 14.2824707 C35.67690133 10.87343375 37.87621161 7.49389095 39.9375 3.6875 C41.28515625 1.546875 41.28515625 1.546875 43 0 C46.77963714 -0.7359516 50.20419756 -0.54708185 54 0 C52.73968719 3.43653537 51.30256378 6.23330458 49.13671875 9.1796875 C48.30043945 10.32630859 48.30043945 10.32630859 47.44726562 11.49609375 C46.86654297 12.28113281 46.28582031 13.06617188 45.6875 13.875 C43.99061575 16.19260182 42.29400232 18.51020114 40.60693359 20.83496094 C39.5694711 22.23274541 38.50100545 23.60827785 37.39697266 24.95410156 C35.76202713 26.92176023 35.76202713 26.92176023 34 30 C34.62024856 34.9460847 39.09714797 39.28200631 42.125 43.125 C43.29911269 44.63729492 44.47228951 46.15031688 45.64453125 47.6640625 C46.2163916 48.40043945 46.78825195 49.13681641 47.37744141 49.89550781 C57 62.37616611 57 62.37616611 57 64 C52.57047601 65.3872685 49.41148603 65.53129929 45 64 C39.92791617 59.17897059 36.1800213 53.06824261 32.43530273 47.19824219 C31.03902642 45.05977102 29.5543515 43.02558545 28 41 C24.52952193 42.15682602 24.02211446 42.98094726 21.96875 45.89453125 C21.12376953 47.08079102 21.12376953 47.08079102 20.26171875 48.29101562 C19.68035156 49.12310547 19.09898437 49.95519531 18.5 50.8125 C17.34389844 52.44411561 16.18765323 54.07562944 15.03125 55.70703125 C14.52142578 56.4338208 14.01160156 57.16061035 13.48632812 57.90942383 C12.99583984 58.59931396 12.50535156 59.2892041 12 60 C11.49815186 60.74048584 10.99630371 61.48097168 10.47924805 62.24389648 C9 64 9 64 6.30078125 64.390625 C5.31464844 64.34421875 4.32851563 64.2978125 3.3125 64.25 C2.31863281 64.21390625 1.32476562 64.1778125 0.30078125 64.140625 C-0.45847656 64.09421875 -1.21773438 64.0478125 -2 64 C-0.39642899 58.8011615 2.87217645 55.01739124 6.1875 50.8125 C7.36034949 49.29372078 8.53223013 47.77419288 9.703125 46.25390625 C11.23803789 44.26963317 12.77413271 42.28682484 14.32617188 40.31591797 C15.3796572 38.97330155 16.40993242 37.61255461 17.4375 36.25 C17.99308594 35.53328125 18.54867188 34.8165625 19.12109375 34.078125 C20.2773476 31.97566757 20.2773476 31.97566757 19.23388672 29.63134766 C18.05524548 27.11781477 16.7777101 25.05269239 15.13671875 22.8203125 C14.57919922 22.05589844 14.02167969 21.29148437 13.44726562 20.50390625 C12.86654297 19.71886719 12.28582031 18.93382813 11.6875 18.125 C10.54545202 16.56519268 9.40352329 15.00529804 8.26171875 13.4453125 C6.66935067 11.27258355 5.07550355 9.10145714 3.46728516 6.94042969 C0 2.2204243 0 2.2204243 0 0 Z " fill="#CED1D1" transform="translate(434,23)"/>
<path d="M0 0 C5.589375 -0.020625 11.17875 -0.04125 16.9375 -0.0625 C18.70343506 -0.071604 20.46937012 -0.08070801 22.28881836 -0.09008789 C23.68082605 -0.09300714 25.07283459 -0.09555567 26.46484375 -0.09765625 C27.55835144 -0.1053302 27.55835144 -0.1053302 28.6739502 -0.11315918 C30.44970076 -0.11347011 32.22534208 -0.06228515 34 0 C35 1 35 1 35 9 C26.42 9 17.84 9 9 9 C9 14.94 9 20.88 9 27 C10.64871094 26.98839844 12.29742187 26.97679688 13.99609375 26.96484375 C16.14322804 26.95546762 18.29036355 26.94636723 20.4375 26.9375 C21.52611328 26.92912109 22.61472656 26.92074219 23.73632812 26.91210938 C24.77080078 26.90888672 25.80527344 26.90566406 26.87109375 26.90234375 C27.82943115 26.89710693 28.78776855 26.89187012 29.77514648 26.88647461 C32 27 32 27 33 28 C33 30.64 33 33.28 33 36 C25.08 36 17.16 36 9 36 C9 42.27 9 48.54 9 55 C10.79308594 54.98839844 12.58617187 54.97679687 14.43359375 54.96484375 C16.76822813 54.95546771 19.10286363 54.94636731 21.4375 54.9375 C22.62150391 54.92912109 23.80550781 54.92074219 25.02539062 54.91210938 C26.15009766 54.90888672 27.27480469 54.90566406 28.43359375 54.90234375 C29.47572021 54.89710693 30.51784668 54.89187012 31.59155273 54.88647461 C34 55 34 55 35 56 C35 58.64 35 61.28 35 64 C23.45 64 11.9 64 0 64 C0 42.88 0 21.76 0 0 Z " fill="#CED1D1" transform="translate(394,23)"/>
<path d="M0 0 C-0.59861742 2.35171131 -1.26924352 4.6859378 -2 7 C-4 8 -4 8 -7 7.0625 C-15.50748857 4.50319327 -22.30692895 5.89902438 -30 10 C-31.08474609 10.51046875 -31.08474609 10.51046875 -32.19140625 11.03125 C-34.64133463 12.34352265 -34.97902532 13.41353082 -36 16 C-36.53625 17.19625 -37.0725 18.3925 -37.625 19.625 C-39.99743293 26.18264795 -39.95648218 32.37257008 -37.25 38.8125 C-33.7848746 45.64649731 -30.15412324 49.26817978 -23 52 C-15.71363064 53.88905872 -9.10185316 51.79587092 -2 50 C1 54.625 1 54.625 1 58 C-8.61156665 62.99151408 -16.60675928 64.06224254 -27.10546875 61.0703125 C-36.96081014 57.42609719 -42.97088867 50.73565474 -47.375 41.375 C-50.44970064 32.91632989 -50.14605733 24.09233509 -47.0625 15.6875 C-43.01046411 7.13827498 -36.84911894 1.12096483 -28.04296875 -2.34375 C-18.34270695 -5.45970408 -9.08877639 -4.5443882 0 0 Z " fill="#CED1D1" transform="translate(192,26)"/>
<path d="M0 0 C0.66 0.33 1.32 0.66 2 1 C-1.63 4.63 -5.26 8.26 -9 12 C-9.66 11.67 -10.32 11.34 -11 11 C-9.92173635 9.72486237 -8.83714481 8.45507431 -7.75 7.1875 C-7.14671875 6.47980469 -6.5434375 5.77210937 -5.921875 5.04296875 C-4.07629602 3.08110329 -2.20054668 1.54330375 0 0 Z " fill="#DDF46C" transform="translate(35,20)"/>
</svg>
